<svg id="Capa_1" data-name="Capa 1" xmlns="http://www.w3.org/2000/svg" xmlns:xlink="http://www.w3.org/1999/xlink" viewBox="0 0 128 128"><defs><style>.cls-1{fill:none;}.cls-2{fill:#6211f9;}.cls-3{clip-path:url(#clip-path);}.cls-4{clip-path:url(#clip-path-2);}.cls-5{clip-path:url(#clip-path-3);}.cls-6{clip-path:url(#clip-path-4);}.cls-7{fill:#fff;}.cls-8{clip-path:url(#clip-path-5);}.cls-9{clip-path:url(#clip-path-6);}</style><clipPath id="clip-path"><path class="cls-1" d="M-77.68-145.14a14,14,0,0,0-12.64,0L-133.79-120a14,14,0,0,0-6.32,11V-58.9a14,14,0,0,0,6.32,11l43.47,25.1a14,14,0,0,0,12.64,0L-34.21-48a14,14,0,0,0,6.32-11V-109.1a14,14,0,0,0-6.32-11Z"/></clipPath><clipPath id="clip-path-2"><polygon class="cls-1" points="-83.72 -148.58 -139.79 -116.22 -139.79 -51.48 -83.72 -19.11 -27.66 -51.48 -27.66 -116.22 -83.72 -148.58"/></clipPath><clipPath id="clip-path-3"><path class="cls-1" d="M70.32,2.86a14,14,0,0,0-12.64,0L14.21,28a14,14,0,0,0-6.32,11V89.1a14,14,0,0,0,6.32,11l43.47,25.1a14,14,0,0,0,12.64,0L113.79,100a14,14,0,0,0,6.32-11V38.9a14,14,0,0,0-6.32-11Z"/></clipPath><clipPath id="clip-path-4"><polygon class="cls-2" points="64.28 -0.58 8.21 31.78 8.21 96.52 64.28 128.89 120.34 96.52 120.34 31.78 64.28 -0.58"/></clipPath><clipPath id="clip-path-5"><path class="cls-1" d="M218.32,2.86a14,14,0,0,0-12.64,0L162.21,28a14,14,0,0,0-6.32,11V89.1a14,14,0,0,0,6.32,11l43.47,25.1a14,14,0,0,0,12.64,0L261.79,100a14,14,0,0,0,6.32-11V38.9a14,14,0,0,0-6.32-11Z"/></clipPath><clipPath id="clip-path-6"><polygon points="212.28 -0.58 156.21 31.78 156.21 96.52 212.28 128.89 268.34 96.52 268.34 31.78 212.28 -0.58"/></clipPath></defs><title>logo-blue</title><g class="cls-3"><g class="cls-4"><polygon class="cls-2" points="-120.66 -81.47 -10.7 -66.98 31.73 35.49 -35.8 123.47 -145.75 108.98 -188.19 6.51 -120.66 -81.47"/></g></g><g class="cls-5"><polygon class="cls-2" points="64.28 -0.58 8.21 31.78 8.21 96.52 64.28 128.89 120.34 96.52 120.34 31.78 64.28 -0.58"/><g class="cls-6"><polygon class="cls-2" points="81.83 89.38 27.8 109.44 -16.59 72.67 -6.94 15.84 47.09 -4.22 91.48 32.55 81.83 89.38"/><polygon class="cls-2" points="51.59 53.6 53.57 -42.78 138.03 -89.24 220.5 -39.33 218.51 57.04 134.06 103.51 51.59 53.6"/><polygon class="cls-2" points="27.34 66.53 137.3 81.02 179.73 183.49 112.2 271.47 2.25 256.99 -40.19 154.51 27.34 66.53"/><polygon class="cls-2" points="30.31 -17.44 30.31 49.25 -27.44 82.6 -85.2 49.25 -85.2 -17.44 -27.44 -50.78 30.31 -17.44"/></g></g><path class="cls-7" d="M100.3,34.26,71.6,17.7a16.11,16.11,0,0,0-15.21,0L27.7,34.26a9.57,9.57,0,0,0-5.08,8.21,9.57,9.57,0,0,0,5.08,8.21L48.84,62.86q0,.55,0,1.11A15.21,15.21,0,1,0,55.45,51.4l-15.5-8.93,23-13.3a3.51,3.51,0,0,1,2,0L93.66,45.71a3.51,3.51,0,0,1,1,1.75V80.54a3.51,3.51,0,0,1-1,1.75L65,98.84a3.51,3.51,0,0,1-2,0L34.34,82.29a3.51,3.51,0,0,1-1-1.75V66.09a6.61,6.61,0,1,0-13.23,0V80.57a16.11,16.11,0,0,0,7.6,13.17L56.4,110.3a16.11,16.11,0,0,0,15.21,0l28.7-16.57a16.11,16.11,0,0,0,7.6-13.17V47.43A16.11,16.11,0,0,0,100.3,34.26Z"/><g class="cls-8"><polygon points="212.28 -0.58 156.21 31.78 156.21 96.52 212.28 128.89 268.34 96.52 268.34 31.78 212.28 -0.58"/><g class="cls-9"><polygon points="175.34 66.53 285.3 81.02 327.73 183.49 260.2 271.47 150.25 256.99 107.81 154.51 175.34 66.53"/><polygon points="178.31 -17.44 178.31 49.25 120.56 82.6 62.8 49.25 62.8 -17.44 120.56 -50.78 178.31 -17.44"/></g></g></svg>